
<svg version="1.0" xmlns="http://www.w3.org/2000/svg"
 width="207.000000pt" height="179.000000pt" viewBox="0 0 207.000000 179.000000"
 preserveAspectRatio="xMidYMid meet">

<g transform="translate(0.000000,179.000000) scale(0.100000,-0.100000)"
fill="#366EFF" stroke="#366EFF59">
<path d="M662 1715 c0 -16 2 -22 5 -12 2 9 2 23 0 30 -3 6 -5 -1 -5 -18z"/>
<path d="M727 1723 c-4 -3 -7 -13 -7 -22 1 -13 3 -13 11 2 11 19 8 33 -4 20z"/>
<path d="M600 1692 c0 -12 19 -26 26 -19 2 2 -2 10 -11 17 -9 8 -15 8 -15 2z"/>
<path d="M770 1675 c-7 -8 -8 -15 -2 -15 5 0 15 7 22 15 7 8 8 15 2 15 -5 0
-15 -7 -22 -15z"/>
<path d="M654 1652 c-49 -32 -32 -105 25 -110 21 -2 40 3 52 14 19 17 21 17
46 -2 50 -38 52 -50 9 -86 -41 -34 -75 -97 -76 -139 0 -19 -11 -34 -41 -54
-63 -44 -141 -135 -181 -210 -31 -60 -41 -70 -79 -84 -58 -22 -104 -83 -119
-158 -6 -32 -22 -92 -35 -133 -40 -126 -57 -243 -53 -366 3 -95 6 -117 24
-141 45 -61 108 -30 161 79 31 63 66 171 78 240 l7 37 50 -54 c30 -33 71 -64
104 -80 131 -62 325 -87 516 -66 207 23 299 59 395 157 35 36 66 64 67 62 2
-1 14 -34 26 -73 63 -193 149 -287 206 -224 17 18 19 37 18 143 0 128 -13 194
-61 314 -33 83 -119 229 -142 242 -11 5 -40 52 -65 104 -58 120 -139 210 -231
258 l-65 33 6 41 c3 25 1 51 -6 64 -23 44 -112 62 -192 40 -30 -9 -48 -7 -85
5 -27 9 -70 15 -98 14 -53 -3 -52 -4 -170 112 -29 28 -67 37 -91 21z m329
-181 c16 -6 10 -14 -37 -49 -46 -34 -165 -92 -189 -92 -14 0 15 67 41 93 46
46 134 69 185 48z m235 -12 c36 -12 48 -39 32 -70 -9 -16 -17 -19 -38 -14 -15
4 -74 10 -132 14 l-105 6 45 24 c88 47 145 59 198 40z m-30 -125 c113 -23 174
-54 246 -126 73 -74 109 -131 142 -229 79 -233 9 -442 -179 -533 -100 -49
-218 -70 -392 -69 -213 0 -354 39 -437 120 l-38 37 30 25 c40 34 54 116 46
258 -8 130 -19 161 -62 179 -19 8 -34 18 -34 23 0 22 83 132 134 178 147 131
339 179 544 137z m-650 -382 c18 -12 33 -162 25 -255 -7 -87 -26 -124 -59
-113 -17 5 -19 16 -19 128 0 141 -11 174 -64 199 l-33 16 28 11 c56 21 102 26
122 14z m1138 -98 c30 -71 12 -177 -36 -219 -23 -20 -23 -20 -16 0 19 52 28
125 24 191 -5 78 4 86 28 28z m-1246 -5 c59 -108 -32 -555 -130 -644 -19 -18
-22 -18 -38 -2 -13 14 -17 41 -21 129 -3 104 -2 111 13 99 45 -37 105 49 106
150 0 61 -24 97 -55 85 -20 -7 -15 12 21 92 46 104 81 135 104 91z m1340 -189
c57 -169 68 -380 20 -380 -28 0 -140 230 -140 286 0 9 14 32 30 51 17 19 36
54 42 79 7 24 15 41 19 36 4 -4 17 -36 29 -72z"/>
<path d="M1355 1070 c-75 -23 -183 -24 -325 -5 -137 20 -174 11 -229 -51 -70
-80 -90 -219 -50 -349 25 -82 81 -144 149 -164 136 -41 408 -28 536 25 83 35
128 136 128 289 0 119 -21 199 -63 244 -34 36 -56 38 -146 11z m-326 -151 c23
-25 36 -94 27 -144 -9 -45 -47 -91 -69 -82 -64 24 -77 191 -20 235 24 17 39
15 62 -9z m410 -5 c42 -54 17 -194 -34 -194 -7 0 -23 12 -34 26 -42 54 -17
194 34 194 7 0 23 -12 34 -26z m-139 -292 c0 -5 -11 -19 -24 -31 -32 -30 -87
-32 -123 -5 -50 37 -42 44 56 44 50 0 91 -4 91 -8z"/>
<path d="M560 1640 c0 -4 9 -10 20 -13 11 -3 20 -2 20 3 0 4 -9 10 -20 13 -11
3 -20 2 -20 -3z"/>
<path d="M795 1620 c-19 -8 -19 -9 2 -9 12 -1 25 4 28 9 7 12 -2 12 -30 0z"/>
<path d="M563 1573 c9 -2 23 -2 30 0 6 3 -1 5 -18 5 -16 0 -22 -2 -12 -5z"/>
<path d="M596 1525 c-11 -8 -17 -17 -14 -20 2 -3 13 4 23 15 21 23 18 25 -9 5z"/>
<path d="M755 1510 c10 -11 20 -18 23 -15 7 6 -18 35 -31 35 -5 0 -2 -9 8 -20z"/>
<path d="M645 1490 c-4 -12 -5 -24 -2 -27 3 -2 8 5 12 17 4 12 5 24 2 27 -3 2
-8 -5 -12 -17z"/>
<path d="M700 1500 c0 -8 5 -22 10 -30 9 -13 10 -13 10 0 0 8 -5 22 -10 30 -9
13 -10 13 -10 0z"/>
</g>
</svg>
